<svg width="780" height="100" viewBox="0 0 780 100" fill="none" xmlns="http://www.w3.org/2000/svg">
<rect width="780" height="100" fill="white"/>
<rect width="100" height="100" fill="#49ED3F"/>
<path d="M50 5L50 95" stroke="white" stroke-width="1.5"/>
<path d="M88.9707 72.5L11.0284 27.5" stroke="white" stroke-width="1.5"/>
<path d="M72.5 88.9712L27.5 11.0289" stroke="white" stroke-width="1.5"/>
<path d="M27.5 88.9712L72.5 11.0288" stroke="white" stroke-width="1.5"/>
<path d="M11.0293 72.5L88.9716 27.5" stroke="white" stroke-width="1.5"/>
<path d="M5 50L95 50" stroke="white" stroke-width="1.5"/>
<circle cx="150" cy="50" r="50" fill="#49ED3F"/>
<rect x="200" width="580" height="100" fill="#49ED3F"/>
<path d="M285.56 76H259.32V75.36C262.68 75.36 266.44 73.84 266.44 70.08V48.4H246.2V70.08C246.2 73.84 249.96 75.36 253.32 75.36V76H227.08V75.36C230.44 75.36 234.2 73.84 234.2 70.08V28.88C234.2 25.12 230.44 23.44 227.08 23.44V22.88H253.32V23.44C249.96 23.44 246.2 25.12 246.2 28.88V47.04H266.44V28.88C266.44 25.12 262.68 23.44 259.32 23.44V22.88H285.56V23.44C282.2 23.44 278.44 25.12 278.44 28.88V70.08C278.44 73.84 282.2 75.36 285.56 75.36V76ZM317.976 76.08C331.016 76.08 331.976 61.04 331.976 49.2C331.976 37.36 330.936 22.32 317.896 22.32C304.856 22.32 303.816 37.36 303.816 49.2C303.816 61.04 304.936 76.08 317.976 76.08ZM317.896 21.52C333.256 21.52 345.896 33.84 345.896 49.2C345.896 64.56 333.256 76.88 317.896 76.88C302.536 76.88 289.896 64.56 289.896 49.2C289.896 33.84 302.536 21.52 317.896 21.52ZM394.125 22.88C395.485 22.88 397.165 22.24 397.245 21.36H397.645L401.565 40.24H401.085C398.205 30.4 388.685 23.6 381.165 23.6V70.08C381.165 73.84 384.925 75.36 388.285 75.36V76H362.045V75.36C365.405 75.36 369.165 73.84 369.165 70.08V23.6C361.645 23.6 352.125 30.4 349.245 40.24H348.765L352.685 21.36H353.085C353.165 22.24 354.845 22.88 356.205 22.88H394.125Z" fill="white"/>
<path d="M403.508 58.44V53.52H418.388V58.44H403.508ZM463.078 67.56C464.278 67.56 464.698 66.6 464.878 66.6C464.998 66.6 465.058 66.66 465.058 66.72C465.058 66.9 463.318 69.66 459.238 69.66C456.898 69.66 454.918 67.92 454.558 65.82C451.978 67.98 449.818 69.78 446.158 69.78C443.038 69.78 440.338 67.38 440.338 64.38C440.338 59.52 450.118 56.88 454.498 54.96V47.16C454.498 45.96 453.358 44.94 452.038 44.94C450.958 44.94 448.258 46.68 448.258 48.78C448.258 50.4 448.198 52.14 447.778 53.58C447.238 55.5 446.038 56.94 443.698 56.94C441.898 56.94 440.458 55.5 440.458 53.52C440.458 51.48 442.618 49.2 445.678 47.28C448.378 45.6 451.738 44.16 454.918 44.16C458.278 44.16 461.878 46.26 461.878 49.14V64.92C461.878 66.3 462.298 67.56 463.078 67.56ZM454.498 55.5C449.338 57.42 447.898 59.16 447.898 63C447.898 64.98 448.978 67.02 451.018 67.02C452.638 67.02 453.538 66.06 454.498 65.04V55.5ZM494.776 44.04V64.32C494.776 66.18 497.476 67.08 498.436 67.26V67.68C494.416 67.74 490.516 69.12 487.396 70.38H487.036V65.46C485.476 67.2 481.096 69.78 477.976 69.78C474.856 69.78 470.476 67.38 470.476 64.02V51.72C470.476 49.86 467.356 47.94 466.456 47.4V46.98C471.436 46.38 477.976 43.98 477.976 43.98H478.336V62.52C478.336 65.7 480.316 67.38 482.596 67.38C484.576 67.38 486.016 65.88 487.036 64.5V51.78C487.036 49.92 483.436 47.94 482.296 47.46V47.04C487.276 46.44 494.416 44.04 494.416 44.04H494.776ZM510.411 62.52C510.411 64.74 511.851 67.56 514.311 67.56C515.931 67.56 516.951 66.66 517.611 65.76H517.911C516.831 67.98 514.011 69.78 510.831 69.78C506.571 69.78 502.911 67.44 502.911 62.22V47.34H500.631V46.98L510.051 37.5H510.411V45.06H517.191L516.351 47.34H510.411V62.52ZM539.287 44.16C542.407 44.16 545.587 46.56 545.587 49.92V64.56C545.587 67.38 546.247 68.52 548.767 68.52V69H534.967V68.52C537.487 68.52 538.147 67.38 538.147 64.56V51.84C538.147 48.96 536.707 46.98 534.427 46.98C532.447 46.98 531.667 47.94 530.227 49.2V64.56C530.227 67.38 530.887 68.52 533.407 68.52V69H519.607V68.52C522.127 68.52 522.787 67.38 522.787 64.56V36.36C522.787 34.5 520.027 32.88 519.127 32.34V31.92C524.107 31.32 529.867 28.56 529.867 28.56H530.227V48.42C532.087 46.98 534.607 44.16 539.287 44.16ZM565.123 44.64C560.323 44.64 559.903 50.22 559.903 56.94C559.903 63.66 560.323 69.24 565.123 69.24C569.923 69.24 570.343 63.66 570.343 56.94C570.343 50.22 569.923 44.64 565.123 44.64ZM565.123 44.1C572.503 44.1 578.983 49.56 578.983 56.94C578.983 64.32 572.503 69.78 565.123 69.78C557.743 69.78 551.263 64.32 551.263 56.94C551.263 49.56 557.743 44.1 565.123 44.1ZM593.235 49.8C594.075 48.12 596.175 43.8 599.595 43.8C601.815 43.8 603.555 45.72 603.555 47.94C603.555 50.1 602.595 52.44 600.375 52.44C597.375 52.44 597.015 49.5 595.395 49.5C594.255 49.5 593.235 51.36 593.235 52.98V64.56C593.235 67.38 593.895 68.52 596.415 68.52V69H582.615V68.52C585.135 68.52 585.795 67.38 585.795 64.56V51.48C585.795 49.62 583.035 48 582.135 47.46V47.04C587.115 46.44 592.875 43.68 592.875 43.68H593.235V49.8Z" fill="white"/>
<path d="M644.422 20.375V34.2656H643.219V27.0781H641.219V33.5469H640.062V20.6875H641.219V26.0312H643.219V20.375H644.422ZM633.266 30.6719V22.0781H634.484V29.5781C635.859 29.5703 637.344 29.4688 639.031 29.125L639.188 30.2188C637.25 30.5703 635.656 30.6719 634.125 30.6719H633.266ZM657.141 20.375V26.0312H659.391V27.0625H657.141V34.2656H655.922V20.375H657.141ZM646.484 30.6562C650.07 28.875 652.023 26.1953 652.305 22.9062H647.125V21.875H653.547C653.539 25.8047 651.695 29.3906 647.172 31.625L646.484 30.6562ZM672.172 21.3281V22.3125H670.75V25.9062C671.461 25.8594 672.164 25.7969 672.828 25.7188L672.891 26.6406C670.07 27.0625 666.82 27.1016 664.422 27.0938L664.281 26.0781C664.844 26.0781 665.445 26.0781 666.078 26.0703V22.3125H664.672V21.3281H672.172ZM666.234 29.25V28.2656H675.094V31.5781H667.469V33.1094H675.609V34.1094H666.266V30.6406H673.875V29.25H666.234ZM667.281 26.0547C668.023 26.0391 668.781 26.0156 669.547 25.9766V22.3125H667.281V26.0547ZM673.875 27.5938V20.375H675.094V23.4375H677.188V24.4688H675.094V27.5938H673.875ZM690.781 31.5156V32.5469H678.062V31.5156H683.781V28.8906H679.656V24.6094H687.969V22.4219H679.625V21.4062H689.172V25.6094H680.875V27.875H689.5V28.8906H684.984V31.5156H690.781ZM704.594 28.3438V29.375H698.797V34.2656H697.594V29.375H691.875V28.3438H704.594ZM693.312 24C693.32 22.1172 695.281 20.9453 698.203 20.9375C701.117 20.9453 703.094 22.1172 703.094 24C703.094 25.8516 701.117 27.0234 698.203 27.0156C695.281 27.0234 693.32 25.8516 693.312 24ZM694.578 24C694.562 25.2344 696.039 26.0312 698.203 26.0312C700.367 26.0312 701.836 25.2344 701.844 24C701.836 22.7422 700.367 21.9375 698.203 21.9375C696.039 21.9375 694.562 22.7422 694.578 24ZM716.578 20.3906V24.9688H718.672V26H716.578V30.7969H715.359V20.3906H716.578ZM705.75 23.0938V22.0938H709.281V20.3906H710.5V22.0938H714.031V23.0938H705.75ZM706.547 26.4531C706.539 24.875 707.883 23.8594 709.891 23.8594C711.875 23.8594 713.219 24.875 713.234 26.4531C713.219 28.0156 711.875 29.0234 709.891 29.0156C707.883 29.0234 706.539 28.0156 706.547 26.4531ZM707.719 26.4531C707.711 27.4297 708.578 28.0625 709.891 28.0469C711.188 28.0625 712.062 27.4297 712.078 26.4531C712.062 25.4609 711.188 24.8203 709.891 24.8281C708.578 24.8203 707.711 25.4609 707.719 26.4531ZM707.891 33.9688V29.9688H709.094V32.9375H717.219V33.9688H707.891ZM730.406 20.3906V24.9688H732.5V26H730.406V30.7969H729.188V20.3906H730.406ZM719.578 23.0938V22.0938H723.109V20.3906H724.328V22.0938H727.859V23.0938H719.578ZM720.375 26.4531C720.367 24.875 721.711 23.8594 723.719 23.8594C725.703 23.8594 727.047 24.875 727.062 26.4531C727.047 28.0156 725.703 29.0234 723.719 29.0156C721.711 29.0234 720.367 28.0156 720.375 26.4531ZM721.547 26.4531C721.539 27.4297 722.406 28.0625 723.719 28.0469C725.016 28.0625 725.891 27.4297 725.906 26.4531C725.891 25.4609 725.016 24.8203 723.719 24.8281C722.406 24.8203 721.539 25.4609 721.547 26.4531ZM721.719 33.9688V29.9688H722.922V32.9375H731.047V33.9688H721.719Z" fill="white"/>
<path d="M640.5 42.0469V43.6406H637.672C637.68 45.3047 638.68 47.0156 640.984 47.75L639.969 49.2969C638.391 48.7812 637.305 47.7656 636.688 46.5C636.055 47.8828 634.914 48.9922 633.266 49.5312L632.203 48C634.555 47.2422 635.633 45.4141 635.656 43.6406H632.75V42.0469H640.5ZM634.125 51.9844V50.4062H643.703V55.4375H641.703V51.9844H634.125ZM641.703 49.7969V41.2188H643.703V44.6719H645.625V46.3281H643.703V49.7969H641.703ZM657.469 41.2188V46.6719H659.484V48.3125H657.469V55.4062H655.469V41.2188H657.469ZM646.094 51.4219C649.461 49.7344 651.273 47.4688 651.648 44.2969H646.906V42.6719H653.672C653.656 46.9219 652 50.6016 647.219 52.9531L646.094 51.4219ZM671.969 41.2188V49.2031H669.984V41.2188H671.969ZM660.891 48.5V42.0312H662.891V46.8359C665.047 46.8125 666.867 46.6562 668.781 46.25L669.016 47.8594C666.805 48.3281 664.68 48.5 662.125 48.5H660.891ZM662.469 55.2656V49.7812H671.969V55.2656H662.469ZM664.422 53.7031H670.016V51.3438H664.422V53.7031ZM686.906 46.7656V48.3281H673.906V46.7656H686.906ZM675.406 50.6719V49.1719H685.297V52.8906H677.375V53.7656H685.672V55.3125H675.422V51.4688H683.328V50.6719H675.406ZM675.531 45.9844V41.5H685.25V43.0938H677.516V44.4219H685.359V45.9844H675.531ZM696.609 43.4531C696.602 45.1797 697.609 46.8359 699.859 47.5312L698.797 49.0781C697.289 48.5781 696.234 47.6094 695.625 46.3672C695.008 47.7969 693.906 48.9219 692.281 49.4688L691.203 47.9062C693.578 47.1172 694.594 45.2266 694.609 43.2656V41.9688H696.609V43.4531ZM693.172 52.6875C693.164 50.9609 695.047 49.9375 698.047 49.9375C700.992 49.9375 702.836 50.9609 702.844 52.6875C702.836 54.4297 700.992 55.4453 698.047 55.4375C695.047 55.4453 693.164 54.4297 693.172 52.6875ZM695.172 52.6875C695.156 53.4922 696.18 53.875 698.047 53.875C699.891 53.875 700.875 53.4922 700.875 52.6875C700.875 51.9141 699.891 51.5 698.047 51.5C696.18 51.5 695.156 51.9141 695.172 52.6875ZM700.703 49.6562V41.2188H702.703V44.5469H704.625V46.2031H702.703V49.6562H700.703ZM718.219 47.875V49.4531H712.719V50.6719H716.672V55.2812H706.75V50.6719H710.734V49.4531H705.25V47.875H718.219ZM706.391 43.2031V41.6094H717.062V43.2031H715.203V45.375H716.969V46.9688H706.484V45.375H708.234V43.2031H706.391ZM708.719 53.6875H714.719V52.2188H708.719V53.6875ZM710.234 45.375H713.203V43.2031H710.234V45.375Z" fill="white"/>
<path d="M637.938 65.0938C637.93 67.3906 639.117 69.8516 641.5 70.8438L640.422 72.4062C638.75 71.6953 637.594 70.2812 636.953 68.5625C636.312 70.4297 635.133 71.9922 633.453 72.7656L632.312 71.1875C634.672 70.1328 635.891 67.5 635.891 65.0938V64.2188H632.875V62.5938H640.906V64.2188H637.938V65.0938ZM642.312 75.4375V61.2188H644.328V75.4375H642.312ZM657.719 61.8594V63C657.727 64.1094 657.727 65.3359 657.383 66.9688H659.266V68.5781H646.25V66.9688H655.375C655.68 65.5547 655.719 64.4531 655.734 63.4531H647.844V61.8594H657.719ZM647.797 75.2812V70.0781H657.672V75.2812H647.797ZM649.75 73.6875H655.688V71.6406H649.75V73.6875ZM674.984 61.2188V66.5312H677.078V68.2031H674.984V75.4375H672.984V61.2188H674.984ZM664.219 72.1406V62.3438H666.203V65.8125H669.156V62.3438H671.141V72.1406H664.219ZM666.203 70.5312H669.156V67.3594H666.203V70.5312ZM690.609 72.2188V73.8594H677.594V72.2188H683.078V70.0781H679.094V65.2969H687.141V63.7344H679.078V62.1406H689.109V66.8594H681.094V68.4531H689.438V70.0781H685.062V72.2188H690.609ZM706.562 62.0469V63.3281C706.555 64.6562 706.555 66.1016 706.195 68.0938H708.078V69.7031H702.531V75.4531H700.531V69.7031H695.109V68.0938H704.172C704.539 66.2656 704.57 64.8672 704.578 63.6406H696.594V62.0469H706.562ZM720.922 61.2344V69.4219H718.938V68.0312H715.734V66.4375H718.938V65.0781H715.883C714.992 67.3281 712.969 68.8828 709.844 69.7344L709.062 68.1562C712.328 67.3047 713.938 65.7344 714.219 63.7812H709.828V62.1875H716.391C716.391 62.6484 716.359 63.0938 716.289 63.5156H718.938V61.2344H720.922ZM711.328 72.4688C711.32 70.7109 713.266 69.6016 716.188 69.5938C719.07 69.6016 721.023 70.7109 721.031 72.4688C721.023 74.25 719.07 75.375 716.188 75.375C713.266 75.375 711.32 74.25 711.328 72.4688ZM713.312 72.4688C713.312 73.3516 714.383 73.7969 716.188 73.7969C717.953 73.7969 719.023 73.3516 719.031 72.4688C719.023 71.5938 717.953 71.1406 716.188 71.1562C714.383 71.1406 713.312 71.5938 713.312 72.4688ZM733.984 61.2188V66.7812H736.078V68.4219H733.984V75.4375H732.016V61.2188H733.984ZM722.688 64.9375V63.3438H725.906V61.4375H727.906V63.3438H731.047V64.9375H722.688ZM723.266 69.125C723.258 67.1406 724.805 65.7266 726.906 65.7344C728.977 65.7266 730.531 67.1406 730.531 69.125C730.531 71.1094 728.977 72.5078 726.906 72.5156C724.805 72.5078 723.258 71.1094 723.266 69.125ZM725.172 69.125C725.172 70.2266 725.898 70.8828 726.906 70.875C727.898 70.8828 728.625 70.2266 728.625 69.125C728.625 68.0312 727.898 67.3594 726.906 67.3438C725.898 67.3594 725.172 68.0312 725.172 69.125ZM748.547 61.2188V75.4375H746.531V61.2188H748.547ZM736.641 71.4062C740.312 69.6719 741.93 67.4219 742.25 64.2656H737.406V62.7031H744.281C744.273 67.0156 742.766 70.6016 737.688 73L736.641 71.4062Z" fill="white"/>
</svg>
