<svg width="149" height="34" viewBox="0 0 149 34" fill="none" xmlns="http://www.w3.org/2000/svg">
<path d="M10.36 33.64C8.17333 33.64 6.2 33.2933 4.44 32.6C2.68 31.88 1.21333 30.84 0.04 29.48L5.12 23.48C5.86667 24.3867 6.6 25.08 7.32 25.56C8.04 26.0133 8.78667 26.24 9.56 26.24C11.5867 26.24 12.6 25.08 12.6 22.76V12.12H3.08V5H21.92V22.2C21.92 26.04 20.9333 28.9067 18.96 30.8C16.9867 32.6933 14.12 33.64 10.36 33.64ZM37.5288 33.4C35.0488 33.4 32.8488 32.92 30.9288 31.96C29.0354 30.9733 27.5421 29.6267 26.4488 27.92C25.3554 26.2133 24.8088 24.2533 24.8088 22.04C24.8088 19.8267 25.3554 17.8667 26.4488 16.16C27.5421 14.4533 29.0354 13.12 30.9288 12.16C32.8488 11.2 35.0488 10.72 37.5288 10.72C40.0088 10.72 42.2088 11.2 44.1288 12.16C46.0488 13.12 47.5421 14.4533 48.6088 16.16C49.7021 17.8667 50.2488 19.8267 50.2488 22.04C50.2488 24.2533 49.7021 26.2133 48.6088 27.92C47.5421 29.6267 46.0488 30.9733 44.1288 31.96C42.2088 32.92 40.0088 33.4 37.5288 33.4ZM37.5288 26.36C38.1954 26.36 38.7954 26.2 39.3288 25.88C39.8621 25.56 40.2888 25.08 40.6088 24.44C40.9288 23.7733 41.0888 22.9733 41.0888 22.04C41.0888 21.08 40.9288 20.2933 40.6088 19.68C40.2888 19.04 39.8621 18.56 39.3288 18.24C38.7954 17.92 38.1954 17.76 37.5288 17.76C36.8621 17.76 36.2621 17.92 35.7287 18.24C35.1954 18.56 34.7688 19.04 34.4488 19.68C34.1288 20.2933 33.9688 21.08 33.9688 22.04C33.9688 22.9733 34.1288 23.7733 34.4488 24.44C34.7688 25.08 35.1954 25.56 35.7287 25.88C36.2621 26.2 36.8621 26.36 37.5288 26.36ZM53.0781 33V11.12H62.1181V33H53.0781ZM57.5981 9.36C55.9448 9.36 54.6248 8.92 53.6381 8.04C52.6515 7.16 52.1581 6.06667 52.1581 4.76C52.1581 3.45333 52.6515 2.36 53.6381 1.48C54.6248 0.599998 55.9448 0.159998 57.5981 0.159998C59.2515 0.159998 60.5715 0.573332 61.5581 1.4C62.5448 2.22666 63.0381 3.29333 63.0381 4.6C63.0381 5.98666 62.5448 7.13333 61.5581 8.04C60.5715 8.92 59.2515 9.36 57.5981 9.36ZM81.325 10.72C83.005 10.72 84.525 11.0667 85.885 11.76C87.245 12.4267 88.3117 13.48 89.085 14.92C89.885 16.36 90.285 18.2267 90.285 20.52V33H81.245V22.08C81.245 20.72 81.005 19.76 80.525 19.2C80.045 18.6133 79.3917 18.32 78.565 18.32C77.9517 18.32 77.3783 18.4667 76.845 18.76C76.3383 19.0267 75.925 19.48 75.605 20.12C75.3117 20.76 75.165 21.6267 75.165 22.72V33H66.125V11.12H74.725V17.52L73.005 15.68C73.8583 14.0267 75.005 12.7867 76.445 11.96C77.9117 11.1333 79.5383 10.72 81.325 10.72ZM116.763 33.4C113.75 33.4 111.403 32.68 109.723 31.24C108.043 29.7733 107.203 27.5333 107.203 24.52V6.2H116.243V24.44C116.243 25.1067 116.416 25.6267 116.763 26C117.136 26.3733 117.59 26.56 118.123 26.56C118.896 26.56 119.576 26.36 120.163 25.96L122.323 32.24C121.63 32.64 120.79 32.9333 119.803 33.12C118.843 33.3067 117.83 33.4 116.763 33.4ZM104.203 18.92V12.32H120.723V18.92H104.203ZM135.576 33.4C133.096 33.4 130.896 32.92 128.976 31.96C127.082 30.9733 125.589 29.6267 124.496 27.92C123.402 26.2133 122.856 24.2533 122.856 22.04C122.856 19.8267 123.402 17.8667 124.496 16.16C125.589 14.4533 127.082 13.12 128.976 12.16C130.896 11.2 133.096 10.72 135.576 10.72C138.056 10.72 140.256 11.2 142.176 12.16C144.096 13.12 145.589 14.4533 146.656 16.16C147.749 17.8667 148.296 19.8267 148.296 22.04C148.296 24.2533 147.749 26.2133 146.656 27.92C145.589 29.6267 144.096 30.9733 142.176 31.96C140.256 32.92 138.056 33.4 135.576 33.4ZM135.576 26.36C136.242 26.36 136.842 26.2 137.376 25.88C137.909 25.56 138.336 25.08 138.656 24.44C138.976 23.7733 139.136 22.9733 139.136 22.04C139.136 21.08 138.976 20.2933 138.656 19.68C138.336 19.04 137.909 18.56 137.376 18.24C136.842 17.92 136.242 17.76 135.576 17.76C134.909 17.76 134.309 17.92 133.776 18.24C133.242 18.56 132.816 19.04 132.496 19.68C132.176 20.2933 132.016 21.08 132.016 22.04C132.016 22.9733 132.176 23.7733 132.496 24.44C132.816 25.08 133.242 25.56 133.776 25.88C134.309 26.2 134.909 26.36 135.576 26.36Z" fill="black"/>
</svg>
